# xmcd
#
# Track frame offsets: 
#        150
#        18457
#        39154
#        56816
#        74864
#        92444
#        113339
#        129937
#        148115
#        167496
#        184260
#        207482
#        226420
#        245219
#        266420
#        282333
#        302452
#        318154
#
# Disc length: 4506 seconds
#
# Revision: 0
# Processed by: cddbd v1.5.2PL0 Copyright (c) Steve Scherf et al.
# Submitted via: ExactAudioCopy v1.0b3
#
DISCID=fe119812
DTITLE=Nelly Furtado - The Best Of Nelly Furtado
DYEAR=2010
DGENRE=Pop
TTITLE0=I'm Like A Bird
TTITLE1=Turn Off The Light
TTITLE2=**** On The Radio (Remember The Days)
TTITLE3=Fotografía (duet with Juanes)
TTITLE4=Powerless (Say What You Want)
TTITLE5=Try
TTITLE6=Força
TTITLE7=Promiscuous feat. Timbaland
TTITLE8=Maneater
TTITLE9=Say It Right
TTITLE10=All Good Things (Come To An End)
TTITLE11=In God's Hands
TTITLE12=Broken Strings feat. James Morrison
TTITLE13=Girlfriend In The City
TTITLE14=Night Is Young
TTITLE15=Stars
TTITLE16=Manos Al Aire
TTITLE17=Lo Bueno Siempre Tiene Un Final
EXTD=
EXTT0=
EXTT1=
EXTT2=
EXTT3=
EXTT4=
EXTT5=
EXTT6=
EXTT7=
EXTT8=
EXTT9=
EXTT10=
EXTT11=
EXTT12=
EXTT13=
EXTT14=
EXTT15=
EXTT16=
EXTT17=
PLAYORDER=
